<?xml version="1.0" encoding="UTF-8" standalone="no"?>
<svg
   xmlns:dc="http://purl.org/dc/elements/1.1/"
   xmlns:cc="http://creativecommons.org/ns#"
   xmlns:rdf="http://www.w3.org/1999/02/22-rdf-syntax-ns#"
   xmlns:svg="http://www.w3.org/2000/svg"
   xmlns="http://www.w3.org/2000/svg"
   id="svg752"
   version="1.1"
   viewBox="0 0 79.375 39.687498"
   height="150"
   width="300">
  <defs
     id="defs746" />
  <metadata
     id="metadata749">
    <rdf:RDF>
      <cc:Work
         rdf:about="">
        <dc:format>image/svg+xml</dc:format>
        <dc:type
           rdf:resource="http://purl.org/dc/dcmitype/StillImage" />
        <dc:title></dc:title>
      </cc:Work>
    </rdf:RDF>
  </metadata>
  <g
     transform="translate(0,-257.31253)"
     id="layer1">
    <g
       style="fill:#784421"
       id="g386"
       transform="matrix(0.35159591,0,0,-0.3243799,20.644952,273.27429)">
      <path
         d="m 0,0 h -7.353 c 0.065,1.378 -0.017,2.285 -0.028,2.387 -0.038,0.37 -0.35,0.652 -0.723,0.652 h -27.924 c -0.402,0 -0.728,-0.325 -0.728,-0.727 0,-0.402 0.326,-0.727 0.728,-0.727 h 27.235 c 0.052,-1.803 -0.102,-7.011 -3.182,-11.548 -0.225,-0.333 -0.139,-0.785 0.193,-1.011 0.126,-0.085 0.267,-0.125 0.408,-0.125 0.232,0 0.462,0.112 0.603,0.319 2.205,3.248 3.02,6.747 3.303,9.326 h 6.704 c -0.142,-1.897 -0.85,-7.04 -4.344,-9.961 -2.337,-1.954 -5.534,-2.587 -9.5,-1.88 -0.008,0.002 -0.015,-10e-4 -0.023,0 -0.055,0.008 -0.108,0 -0.164,-0.004 -0.04,-0.004 -0.08,0 -0.118,-0.01 -0.041,-0.01 -0.077,-0.034 -0.116,-0.051 -0.049,-0.022 -0.098,-0.04 -0.141,-0.073 -0.006,-0.004 -0.014,-0.005 -0.019,-0.009 -1.292,-1.033 -2.783,-1.895 -4.433,-2.563 -1.133,-0.459 -1.861,-1.156 -2.166,-2.073 -0.223,-0.667 -0.167,-1.327 -0.039,-1.854 h -10.948 c 0.129,0.527 0.183,1.187 -0.038,1.854 -0.306,0.917 -1.035,1.614 -2.166,2.073 -10.605,4.293 -10.939,14.828 -10.836,17.59 h 4.938 c 0.401,0 0.727,0.325 0.727,0.727 0,0.402 -0.326,0.727 -0.727,0.727 h -5.621 c -0.373,0 -0.686,-0.282 -0.724,-0.653 -0.014,-0.144 -1.324,-14.468 11.697,-19.74 0.715,-0.29 1.163,-0.685 1.329,-1.176 0.173,-0.51 0.034,-1.057 -0.098,-1.402 h -12.252 c -0.401,0 -0.726,-0.325 -0.726,-0.727 v -0.216 c 0,-3.074 2.501,-5.575 5.575,-5.575 h 20.215 c 0.402,0 0.727,0.325 0.727,0.727 0,0.402 -0.325,0.727 -0.727,0.727 h -20.215 c -2.1,0 -3.837,1.578 -4.089,3.61 h 11.953 13.064 11.954 c -0.252,-2.032 -1.991,-3.61 -4.09,-3.61 h -3.728 c -0.401,0 -0.727,-0.325 -0.727,-0.727 0,-0.402 0.326,-0.727 0.727,-0.727 h 3.728 c 3.075,0 5.576,2.501 5.576,5.575 v 0.216 c 0,0.402 -0.326,0.727 -0.728,0.727 h -12.251 c -0.131,0.346 -0.27,0.892 -0.098,1.402 0.167,0.491 0.614,0.886 1.329,1.176 1.676,0.678 3.194,1.551 4.535,2.583 1.02,-0.166 2.001,-0.259 2.931,-0.259 2.957,0 5.452,0.838 7.443,2.505 4.839,4.053 4.896,11.483 4.896,11.797 C 0.728,-0.326 0.401,0 0,0"
         style="fill:#784421;fill-opacity:1;fill-rule:nonzero;stroke:none"
         id="path388" />
    </g>
    <g
       style="fill:#784421"
       id="g390"
       transform="matrix(0.35159591,0,0,-0.3243799,11.216415,269.45555)">
      <path
         d="m 0,0 c 0,-0.909 -0.354,-1.765 -0.999,-2.409 -0.284,-0.284 -0.284,-0.744 0,-1.029 0.142,-0.142 0.328,-0.212 0.515,-0.212 0.185,0 0.372,0.07 0.513,0.212 0.919,0.919 1.426,2.14 1.426,3.438 0,1.299 -0.507,2.52 -1.426,3.438 -1.328,1.33 -1.328,3.492 0,4.82 0.284,0.284 0.284,0.744 0,1.028 -0.284,0.284 -0.744,0.284 -1.028,0 -1.896,-1.895 -1.896,-4.979 0,-6.876 C -0.354,1.766 0,0.91 0,0"
         style="fill:#784421;fill-opacity:1;fill-rule:nonzero;stroke:none"
         id="path392" />
    </g>
    <g
       style="fill:#784421"
       id="g394"
       transform="matrix(0.35159591,0,0,-0.3243799,7.1143447,271.4953)">
      <path
         d="m 0,0 c -0.283,-0.284 -0.283,-0.745 0,-1.029 0.143,-0.142 0.328,-0.213 0.515,-0.213 0.186,0 0.372,0.071 0.514,0.213 0.919,0.919 1.425,2.139 1.425,3.438 0,1.298 -0.506,2.519 -1.425,3.438 -1.329,1.329 -1.329,3.491 0,4.82 0.284,0.284 0.284,0.744 0,1.028 C 0.745,11.979 0.284,11.979 0,11.695 -1.896,9.8 -1.896,6.715 0,4.818 1.329,3.49 1.329,1.328 0,0"
         style="fill:#784421;fill-opacity:1;fill-rule:nonzero;stroke:none"
         id="path396" />
    </g>
    <g
       style="fill:#784421"
       id="g398"
       transform="matrix(0.35159591,0,0,-0.3243799,14.615995,271.18071)">
      <path
         d="m 0,0 c -0.284,-0.284 -0.284,-0.745 0,-1.029 0.143,-0.142 0.328,-0.213 0.515,-0.213 0.185,0 0.372,0.071 0.513,0.213 1.897,1.895 1.897,4.98 0,6.877 -0.644,0.644 -0.999,1.5 -0.999,2.409 0,0.91 0.355,1.765 0.999,2.41 0.285,0.283 0.285,0.744 0,1.028 C 0.744,11.979 0.284,11.979 0,11.695 -0.919,10.776 -1.426,9.556 -1.426,8.257 -1.426,6.959 -0.919,5.738 0,4.819 1.329,3.49 1.329,1.328 0,0"
         style="fill:#784421;fill-opacity:1;fill-rule:nonzero;stroke:none"
         id="path400" />
    </g>
    <g
       style="fill:#784421"
       id="g402"
       transform="matrix(0.35159591,0,0,-0.3243799,5.1963523,274.709)">
      <path
         d="m 0,0 c -0.193,-0.352 -0.064,-0.794 0.288,-0.986 3.187,-1.748 8.179,-1.748 11.365,0 2.748,1.506 7.22,1.506 9.968,0 1.594,-0.874 3.638,-1.311 5.683,-1.311 2.045,0 4.09,0.437 5.682,1.311 0.353,0.192 0.483,0.634 0.289,0.986 -0.194,0.354 -0.637,0.482 -0.987,0.289 -2.748,-1.507 -7.22,-1.507 -9.968,0 -3.186,1.747 -8.178,1.747 -11.366,0 -2.748,-1.507 -7.22,-1.507 -9.968,0 C 0.636,0.482 0.192,0.354 0,0"
         style="fill:#784421;fill-opacity:1;fill-rule:nonzero;stroke:none"
         id="path404" />
    </g>
    <text
       transform="scale(1.3879676,0.72047789)"
       id="text4520"
       y="388.02957"
       x="15.53219"
       style="font-style:normal;font-weight:normal;font-size:14.05397606px;line-height:1.25;font-family:sans-serif;letter-spacing:0px;word-spacing:0px;fill:#000000;fill-opacity:1;stroke:none;stroke-width:0.35134938"
       xml:space="preserve"><tspan
         style="stroke-width:0.35134938"
         id="tspan4518"
         y="388.02957"
         x="15.53219"><tspan
           id="tspan4516"
           style="fill:#784421;stroke-width:0.35134938"
           y="388.02957"
           x="15.53219">decaf</tspan></tspan></text>
  </g>
</svg>
